<mxfile host="app.diagrams.net" modified="2023-11-15T12:27:22.465Z" agent="Mozilla/5.0 (Windows NT 10.0; Win64; x64) AppleWebKit/537.36 (KHTML, like Gecko) Chrome/119.0.0.0 Safari/537.36" etag="lGhmY2PaWlVwxHk6BPPW" version="22.1.1" type="github">
  <diagram name="Todo App" id="AGcY002V9TIpLeIxbT3k">
    <mxGraphModel dx="1050" dy="566" grid="1" gridSize="10" guides="1" tooltips="1" connect="1" arrows="1" fold="1" page="1" pageScale="1" pageWidth="850" pageHeight="1100" math="0" shadow="0">
      <root>
        <mxCell id="0" />
        <mxCell id="1" parent="0" />
        <mxCell id="o5cxxERq3TO_oCeixIop-1" value="&lt;font style=&quot;font-size: 18px;&quot;&gt;Todo App Diagram&lt;/font&gt;" style="text;html=1;align=center;verticalAlign=middle;resizable=0;points=[];autosize=1;strokeColor=none;fillColor=none;strokeWidth=3;" vertex="1" parent="1">
          <mxGeometry x="340" y="10" width="170" height="40" as="geometry" />
        </mxCell>
        <mxCell id="o5cxxERq3TO_oCeixIop-2" value="" style="whiteSpace=wrap;html=1;strokeWidth=3;" vertex="1" parent="1">
          <mxGeometry x="80" y="60" width="720" height="370" as="geometry" />
        </mxCell>
        <mxCell id="o5cxxERq3TO_oCeixIop-3" value="&lt;font style=&quot;font-size: 18px;&quot;&gt;Todo List&lt;/font&gt;" style="whiteSpace=wrap;html=1;strokeWidth=3;" vertex="1" parent="1">
          <mxGeometry x="150" y="180" width="580" height="210" as="geometry" />
        </mxCell>
        <mxCell id="o5cxxERq3TO_oCeixIop-4" value="&lt;font style=&quot;font-size: 18px;&quot;&gt;Text Field&lt;/font&gt;" style="whiteSpace=wrap;html=1;strokeWidth=3;" vertex="1" parent="1">
          <mxGeometry x="150" y="100" width="430" height="60" as="geometry" />
        </mxCell>
        <mxCell id="o5cxxERq3TO_oCeixIop-5" value="&lt;font style=&quot;font-size: 18px;&quot;&gt;Add Note&lt;/font&gt;" style="whiteSpace=wrap;html=1;strokeWidth=3;" vertex="1" parent="1">
          <mxGeometry x="600" y="100" width="120" height="60" as="geometry" />
        </mxCell>
        <mxCell id="o5cxxERq3TO_oCeixIop-6" value="&lt;font size=&quot;1&quot; style=&quot;&quot;&gt;&lt;b style=&quot;font-size: 17px;&quot;&gt;&amp;nbsp; &amp;nbsp;Todo Item (draggable and clickable (Done or Delete))&amp;nbsp;&amp;nbsp;&lt;/b&gt;&lt;/font&gt;" style="whiteSpace=wrap;html=1;align=left;strokeWidth=3;" vertex="1" parent="1">
          <mxGeometry x="170" y="190" width="540" height="50" as="geometry" />
        </mxCell>
      </root>
    </mxGraphModel>
  </diagram>
</mxfile>
